<?xml version="1.0" encoding="UTF-8" standalone="no"?>
<!-- Created with Inkscape (http://www.inkscape.org/) -->

<svg
   width="256.13254mm"
   height="192.13229mm"
   viewBox="0 0 256.13254 192.1323"
   version="1.1"
   id="svg1"
   inkscape:version="1.3.2 (091e20ef0f, 2023-11-25)"
   sodipodi:docname="screenshot.svg"
   xmlns:inkscape="http://www.inkscape.org/namespaces/inkscape"
   xmlns:sodipodi="http://sodipodi.sourceforge.net/DTD/sodipodi-0.dtd"
   xmlns="http://www.w3.org/2000/svg"
   xmlns:svg="http://www.w3.org/2000/svg">
  <sodipodi:namedview
     id="namedview1"
     pagecolor="#ffffff"
     bordercolor="#666666"
     borderopacity="1.0"
     inkscape:showpageshadow="2"
     inkscape:pageopacity="0.0"
     inkscape:pagecheckerboard="0"
     inkscape:deskcolor="#d1d1d1"
     inkscape:document-units="mm"
     inkscape:zoom="0.62009454"
     inkscape:cx="781.33248"
     inkscape:cy="387.84409"
     inkscape:window-width="1920"
     inkscape:window-height="1016"
     inkscape:window-x="1080"
     inkscape:window-y="461"
     inkscape:window-maximized="1"
     inkscape:current-layer="layer1" />
  <defs
     id="defs1">
    <clipPath
       clipPathUnits="userSpaceOnUse"
       id="clipPath2">
      <path
         d="M 0,0 H 141 V 76 H 0 Z"
         transform="matrix(1,0,0,-1,3.5528522e-6,76.000001)"
         id="path2" />
    </clipPath>
    <clipPath
       clipPathUnits="userSpaceOnUse"
       id="clipPath3">
      <path
         d="M 0,0 H 141 V 76 H 0 Z"
         transform="matrix(1,0,0,-1,3.5528522e-6,76.000001)"
         id="path3" />
    </clipPath>
    <clipPath
       clipPathUnits="userSpaceOnUse"
       id="clipPath4">
      <path
         d="M 0,0 H 141 V 76 H 0 Z"
         transform="matrix(1,0,0,-1,3.5528522e-6,76.000001)"
         id="path4" />
    </clipPath>
    <clipPath
       clipPathUnits="userSpaceOnUse"
       id="clipPath5">
      <path
         d="M 0,0 H 141 V 76 H 0 Z"
         transform="matrix(1,0,0,-1,3.5528522e-6,76.000001)"
         id="path5" />
    </clipPath>
    <clipPath
       clipPathUnits="userSpaceOnUse"
       id="clipPath6">
      <path
         d="M 0,0 H 141 V 76 H 0 Z"
         transform="matrix(1,0,0,-1,3.5528522e-6,76.000001)"
         id="path6" />
    </clipPath>
    <clipPath
       clipPathUnits="userSpaceOnUse"
       id="clipPath7">
      <path
         d="M 0,0 H 141 V 76 H 0 Z"
         transform="matrix(1,0,0,-1,3.5528522e-6,76.000001)"
         id="path7" />
    </clipPath>
  </defs>
  <g
     inkscape:label="Layer 1"
     inkscape:groupmode="layer"
     id="layer1"
     transform="translate(15.178996,-42.557841)">
    <path
       id="path1"
       d="M -15.112849,138.62399 H 112.88727 V 42.623989 H -15.112849 Z"
       style="fill:#fafafa;fill-opacity:1;fill-rule:nonzero;stroke:none;stroke-width:0.352778" />
    <g
       id="g13"
       transform="matrix(0.26458333,0,0,0.26458333,-15.112849,42.623985)">
      <path
         d="m 79.086,17.234 c -5.797,0 -10.5,4.711 -10.5,10.508 0,5.805 4.703,10.508 10.5,10.508 5.793,0 10.496,-4.707 10.496,-10.508 0,-5.801 -4.703,-10.508 -10.496,-10.508 z m 0.848,3.637 c 3.523,0 6.394,2.848 6.394,6.375 0,3.527 -2.871,6.399 -6.394,6.399 -3.524,0 -6.372,-2.872 -6.372,-6.399 0,-3.527 2.852,-6.375 6.372,-6.375 z"
         style="fill:#000000;fill-opacity:1;fill-rule:evenodd;stroke:none"
         transform="matrix(0.93821333,0,0,0.93821333,313.70133,64.898453)"
         clip-path="url(#clipPath2)"
         id="path8" />
      <path
         d="m 43.648,22.578 c -6.347,0 -11.492,4.758 -11.492,10.633 0,5.871 5.145,10.633 11.492,10.633 6.344,0 11.489,-4.762 11.489,-10.633 0,-5.875 -5.145,-10.633 -11.489,-10.633 z m -0.836,3.004 c 4.266,0 7.719,3.18 7.719,7.125 0,3.945 -3.453,7.145 -7.719,7.145 -4.261,0 -7.722,-3.2 -7.722,-7.145 0,-3.941 3.461,-7.125 7.722,-7.125 z"
         style="fill:#000000;fill-opacity:1;fill-rule:evenodd;stroke:none"
         transform="matrix(0.93821333,0,0,0.93821333,313.70133,64.898453)"
         clip-path="url(#clipPath3)"
         id="path9" />
      <path
         d="m 108.527,49.102 c -1.437,-0.805 -2.941,-1.821 -4.504,-3.043 -1.57,-1.211 -3.082,-2.524 -4.531,-3.946 -1.426,-1.414 -2.711,-2.867 -3.851,-4.359 -1.141,-1.512 -2,-2.965 -2.582,-4.356 -0.555,-1.386 -0.758,-2.656 -0.61,-3.816 0.153,-1.176 1.367,-3.547 4.031,-6.082 5.133,-3.852 12.657,-4.02 12.657,-4.02 l -0.352,6.387 c 0,0 -4.437,0.891 -6.004,1.672 -1.539,0.766 -2.683,1.711 -3.429,2.836 -0.719,1.113 -1.047,2.375 -0.989,3.785 0.082,1.418 0.524,2.934 1.317,4.543 0.8,1.606 1.941,3.285 3.422,5.039 1.484,1.77 3.293,3.555 5.425,5.36 z"
         style="fill:#000000;fill-opacity:1;fill-rule:nonzero;stroke:none"
         transform="matrix(0.93821333,0,0,0.93821333,313.70133,64.898453)"
         clip-path="url(#clipPath4)"
         id="path10" />
      <path
         d="M 16.688,43.844 11.555,34.125 0,76 6.098,8.902 17.395,30.051 23.234,19.547 40.566,64.777 21.949,33.336 Z"
         style="fill:#000000;fill-opacity:1;fill-rule:nonzero;stroke:none"
         transform="matrix(0.93821333,0,0,0.93821333,313.70133,64.898453)"
         clip-path="url(#clipPath5)"
         id="path11" />
      <path
         d="M 84.738,49.539 54.887,50.676 62.52,0 65.891,25.039 57.434,47.871 92.391,40.363 Z"
         style="fill:#000000;fill-opacity:1;fill-rule:nonzero;stroke:none"
         transform="matrix(0.93821333,0,0,0.93821333,313.70133,64.898453)"
         clip-path="url(#clipPath6)"
         id="path12" />
      <path
         d="m 112.367,17.773 -2.004,40.805 6.039,-19.652 12.578,5.015 -1.433,24.508 13.453,-43.996 -10.953,-2.664 -0.676,15.543 -11.863,-2.125 4.738,-15 z"
         style="fill:#000000;fill-opacity:1;fill-rule:nonzero;stroke:none"
         transform="matrix(0.93821333,0,0,0.93821333,313.70133,64.898453)"
         clip-path="url(#clipPath7)"
         id="path13" />
    </g>
    <text
       id="text13"
       xml:space="preserve"
       x="-5.1130028"
       y="88.501678"
       style="font-size:4.23333px;stroke-width:0.352778"><tspan
         style="font-variant:normal;font-weight:700;font-size:5.06102px;font-family:'Latin Modern Sans';writing-mode:lr-tb;fill:#23373b;fill-opacity:1;fill-rule:nonzero;stroke:none;stroke-width:0.352778"
         x="-5.1130028 -0.16433322 2.6192207 3.9123116 6.8527565 9.3270912"
         y="88.501678"
         sodipodi:role="line"
         id="tspan13">Moloch</tspan></text>
    <text
       id="text14"
       xml:space="preserve"
       x="-5.1130028"
       y="94.948334"
       style="font-size:4.23333px;stroke-width:0.352778"><tspan
         style="font-variant:normal;font-weight:normal;font-size:4.21753px;font-family:'Latin Modern Sans';writing-mode:lr-tb;fill:#23373b;fill-opacity:1;fill-rule:nonzero;stroke:none;stroke-width:0.352778"
         x="-5.1130028 -1.009365 2.5734444 3.5447273 5.6631966 6.6387062 9.9043465 11.881107 14.227314 16.968281 18.803745 20.780506 24.046146 25.881611 28.659702 31.476154 33.594624 35.430088 38.695728"
         y="94.948334"
         sodipodi:role="line"
         id="tspan14">AMinimalBeamerTheme</tspan></text>
    <path
       id="path14"
       d="M -5.1130088,99.992001 V 99.851419 H 102.88841 v 0.140582 z"
       style="fill:#eb811b;fill-opacity:1;fill-rule:nonzero;stroke:none;stroke-width:0.352778" />
    <text
       id="text15"
       xml:space="preserve"
       x="-5.1130028"
       y="106.66973"
       style="font-size:4.23333px;stroke-width:0.352778"><tspan
         style="font-variant:normal;font-weight:normal;font-size:3.16315px;font-family:'Latin Modern Sans';writing-mode:lr-tb;fill:#23373b;fill-opacity:1;fill-rule:nonzero;stroke:none;stroke-width:0.352778"
         x="-5.1130028 -3.5754051 -1.9498557 -0.27087009 1.2910959 4.0550575 5.8270454 7.2972755 8.407856 9.6541481 10.900425 12.525959"
         y="106.66973"
         sodipodi:role="line"
         id="tspan15">JohanLarsson</tspan></text>
    <text
       id="text16"
       xml:space="preserve"
       x="-5.1130028"
       y="111.10697"
       style="font-size:4.23333px;stroke-width:0.352778"><tspan
         style="font-variant:normal;font-weight:normal;font-size:2.4602px;font-family:'Latin Modern Sans';writing-mode:lr-tb;fill:#4e5e61;fill-opacity:1;fill-rule:nonzero;stroke:none;stroke-width:0.352778"
         x="-5.1130028 -3.3276329 -1.9779624 0.05490505 1.9428445 3.1048012 4.4544716 5.638813 6.53162 7.4755898 9.5515175 10.713474 12.063129 13.878025 15.185123 16.854862 18.307133 19.251102 20.506794 21.450764 22.074436 23.076466 24.020451 24.644108 25.806065 26.808109 28.405018 29.827259 31.176929 32.5266 34.747181 36.541157 37.890827 38.514484 39.718998 40.880955 41.773762 42.775791 43.399464 44.272099"
         y="111.10697"
         sodipodi:role="line"
         id="tspan16">TheDepartmentofStatistics,LundUniversity</tspan></text>
    <text
       id="text17"
       xml:space="preserve"
       x="-5.1130028"
       y="117.58679"
       style="font-size:4.23333px;stroke-width:0.352778"><tspan
         style="font-variant:normal;font-weight:normal;font-size:3.16315px;font-family:'Latin Modern Sans';writing-mode:lr-tb;fill:#23373b;fill-opacity:1;fill-rule:nonzero;stroke:none;stroke-width:0.352778"
         x="-5.1130028 -2.9408836 -1.3504599 -0.23986423 0.53638089 2.3943977 4.0199471 6.0079842 7.6335182 9.2590675 10.884602"
         y="117.58679"
         sodipodi:role="line"
         id="tspan17">April3,2024</tspan></text>
    <path
       id="path17"
       d="M 112.88728,138.62399 H 240.8874 V 42.623987 H 112.88728 Z"
       style="fill:#fafafa;fill-opacity:1;fill-rule:nonzero;stroke:none;stroke-width:0.352777" />
    <path
       id="path18"
       d="M 112.88728,52.499999 H 240.8874 V 42.623984 H 112.88728 Z"
       style="fill:#23373b;fill-opacity:1;fill-rule:nonzero;stroke:none;stroke-width:0.352777" />
    <text
       id="text18"
       xml:space="preserve"
       x="115.98008"
       y="48.89743"
       style="font-size:4.23333px;stroke-width:0.352777"><tspan
         style="font-variant:normal;font-weight:700;font-size:4.21754px;font-family:'Latin Modern Sans';writing-mode:lr-tb;fill:#fafafa;fill-opacity:1;fill-rule:nonzero;stroke:none;stroke-width:0.352777"
         x="115.98008 118.68479 120.89899 123.26545 124.34301 128.04643 130.36606 133.33142 136.2955 138.61514 140.98158 142.68633 144.84189 147.20834 148.91307"
         y="48.89743"
         sodipodi:role="line"
         id="tspan18">TableofContents</tspan></text>
    <text
       id="text19"
       xml:space="preserve"
       x="122.88711"
       y="79.099091"
       style="font-size:4.23333px;stroke-width:0.352777"><tspan
         style="font-variant:normal;font-weight:normal;font-size:3.51459px;font-family:'Latin Modern Sans';writing-mode:lr-tb;fill:#23373b;fill-opacity:1;fill-rule:nonzero;stroke:none;stroke-width:0.352777"
         x="122.88711 124.64442 127.18124 128.15758 129.97357 131.24269 132.4436 134.29932 136.11531 137.93129 139.49353 140.76263 141.60226 143.35957"
         y="79.099091"
         sodipodi:role="line"
         id="tspan19">1.Introduction</tspan></text>
    <text
       id="text20"
       xml:space="preserve"
       x="122.88711"
       y="88.588806"
       style="font-size:4.23333px;stroke-width:0.352777"><tspan
         style="font-variant:normal;font-weight:normal;font-size:3.51459px;font-family:'Latin Modern Sans';writing-mode:lr-tb;fill:#23373b;fill-opacity:1;fill-rule:nonzero;stroke:none;stroke-width:0.352777"
         x="122.88711 124.64442 127.18124 129.28015 130.11977 131.68202 134.47435 136.03658 137.85257 139.12167"
         y="88.588806"
         sodipodi:role="line"
         id="tspan20">2.Elements</tspan></text>
    <text
       id="text21"
       xml:space="preserve"
       x="122.88711"
       y="98.078186"
       style="font-size:4.23333px;stroke-width:0.352777"><tspan
         style="font-variant:normal;font-weight:normal;font-size:3.51459px;font-family:'Latin Modern Sans';writing-mode:lr-tb;fill:#23373b;fill-opacity:1;fill-rule:nonzero;stroke:none;stroke-width:0.352777"
         x="122.88711 124.64442 127.18124 129.4267 131.18399 132.99997 134.56221 135.40184 137.21782 138.56496 139.4046 141.1619"
         y="98.078186"
         sodipodi:role="line"
         id="tspan21">3.Conclusion</tspan></text>
    <text
       id="text22"
       xml:space="preserve"
       x="234.77341"
       y="136.77896"
       style="font-size:4.23333px;stroke-width:0.352777"><tspan
         style="font-variant:normal;font-weight:normal;font-size:1.75729px;font-family:'Latin Modern Sans';writing-mode:lr-tb;fill:#23373b;fill-opacity:1;fill-rule:nonzero;stroke:none;stroke-width:0.352777"
         x="234.77341 236.0181 237.26279 238.19643"
         y="136.77896"
         sodipodi:role="line"
         id="tspan22">1/15</tspan></text>
    <path
       id="path22"
       d="M -15.112849,234.62399 H 112.88727 v -96 H -15.112849 Z"
       style="fill:#fafafa;fill-opacity:1;fill-rule:nonzero;stroke:none;stroke-width:0.352777" />
    <text
       id="text23"
       xml:space="preserve"
       x="6.3617897"
       y="181.1062"
       style="font-size:4.23333px;stroke-width:0.352777"><tspan
         style="font-variant:normal;font-weight:700;font-size:5.06103px;font-family:'Latin Modern Sans';writing-mode:lr-tb;fill:#23373b;fill-opacity:1;fill-rule:nonzero;stroke:none;stroke-width:0.352777"
         x="6.3617897 8.0344582 10.874195 12.919865 14.803577 17.744022 20.583759 23.423512 25.897831 27.943501 29.236591 32.020161"
         y="181.1062"
         sodipodi:role="line"
         id="tspan23">Introduction</tspan></text>
    <path
       id="path23"
       d="m 6.3617912,185.11269 v -0.14058 H 91.413571 v 0.14058 z"
       style="fill:#d6c6b7;fill-opacity:1;fill-rule:nonzero;stroke:none;stroke-width:0.352777" />
    <path
       id="path24"
       d="m 6.3617912,185.11269 v -0.14058 h 5.0029698 v 0.14058 z"
       style="fill:#eb811b;fill-opacity:1;fill-rule:nonzero;stroke:none;stroke-width:0.352777" />
    <path
       id="path25"
       d="M 112.88728,234.62399 H 240.8874 v -96 H 112.88728 Z"
       style="fill:#fafafa;fill-opacity:1;fill-rule:nonzero;stroke:none;stroke-width:0.352777" />
    <path
       id="path26"
       d="M 112.88728,148.5 H 240.8874 v -9.87601 H 112.88728 Z"
       style="fill:#23373b;fill-opacity:1;fill-rule:nonzero;stroke:none;stroke-width:0.352777" />
    <text
       id="text26"
       xml:space="preserve"
       x="115.98008"
       y="144.89743"
       style="font-size:4.23333px;stroke-width:0.352777"><tspan
         style="font-variant:normal;font-weight:700;font-size:4.21754px;font-family:'Latin Modern Sans';writing-mode:lr-tb;fill:#fafafa;fill-opacity:1;fill-rule:nonzero;stroke:none;stroke-width:0.352777"
         x="115.98008 120.10398 122.42362 123.5012 125.95159 128.01353"
         y="144.89743"
         sodipodi:role="line"
         id="tspan26">Moloch</tspan></text>
    <text
       id="text27"
       xml:space="preserve"
       x="122.88712"
       y="177.26939"
       style="font-size:4.23333px;stroke-width:0.352777"><tspan
         style="font-variant:normal;font-weight:normal;font-size:3.51459px;font-family:'Latin Modern Sans';writing-mode:lr-tb;fill:#23373b;fill-opacity:1;fill-rule:nonzero;stroke:none;stroke-width:0.352777"
         x="122.88712 125.27917 127.09515"
         y="177.26939"
         sodipodi:role="line"
         id="tspan27">The</tspan><tspan
         style="font-variant:normal;font-weight:700;font-size:3.51459px;font-family:'Latin Modern Sans';writing-mode:lr-tb;fill:#23373b;fill-opacity:1;fill-rule:nonzero;stroke:none;stroke-width:0.352777"
         x="129.82874 132.87482 134.80785 135.70584 137.7478 139.46608"
         y="177.26939"
         sodipodi:role="line"
         id="tspan28">moloch</tspan><tspan
         style="font-variant:normal;font-weight:normal;font-size:3.51459px;font-family:'Latin Modern Sans';writing-mode:lr-tb;fill:#23373b;fill-opacity:1;fill-rule:nonzero;stroke:none;stroke-width:0.352777"
         x="142.60811 143.87723 145.69321 147.25545 150.04779 152.78038 153.62 156.14102 159.00049 161.34366 162.90588 164.595 167.38733 168.94957 171.32086 172.58997 174.40596 175.96819 178.76053 181.49312 183.89464 184.73427 186.00337 188.98973 191.78206 192.62169 194.43768 195.27731 198.06964 199.75876 201.77226 203.39284 204.23248 205.57962 207.3956 209.0847 211.09471 212.91069 214.66798 215.5076 216.85474 218.41699 220.95381 221.93016 224.37314 225.21278 227.73027"
         y="177.26939"
         sodipodi:role="line"
         id="tspan29">themeisaBeamerthemewithminimalvisualnoise.Itisa</tspan><tspan
         style="font-variant:normal;font-weight:normal;font-size:3.51459px;font-family:'Latin Modern Sans';writing-mode:lr-tb;fill:#23373b;fill-opacity:1;fill-rule:nonzero;stroke:none;stroke-width:0.352777"
         x="122.88712 123.96119 125.62006 126.82101 129.68855 131.44585 133.67268 134.9418 136.75778 139.46928 142.26161 143.82387 145.09297 146.29391 148.05121 149.96559 151.72289 152.56253 153.40216 155.89856 157.16768 158.98366 160.5459 163.33824 166.04973 167.76732 170.53716 173.61241 175.30153 176.57063 177.83977 179.65573 180.49538 182.18449 184.6844 186.92918 188.68646 190.44376 192.00598 192.84563 194.60292 196.16515 197.51228 199.2014 201.01738 202.77467 204.90381 207.30533 209.12132 209.96094 211.52318 214.48843 215.32806 218.29684 219.56595 221.38194 222.57936 225.54813 227.85123 229.54033"
         y="181.48685"
         sodipodi:role="line"
         id="tspan30">forkofthemetropolisthemebyMatthiasVogelgesang,whichinturnwas</tspan><tspan
         style="font-variant:normal;font-weight:normal;font-size:3.51459px;font-family:'Latin Modern Sans';writing-mode:lr-tb;fill:#23373b;fill-opacity:1;fill-rule:nonzero;stroke:none;stroke-width:0.352777"
         x="122.88712 123.72677 125.54275 126.88988 128.70587 129.5455 130.74644 132.30867 135.29503 137.0126 139.80704 141.52463 144.31555 145.58467 147.40065 150.13675 151.95274 153.29988 154.50081 158.4635 159.73264 161.5486 163.11084 165.90318 168.63577 170.35335 173.14427 175.48744 177.04968 178.86566 179.80299 181.49211 184.28444 185.12408 188.11394 191.3347 192.89693 193.73657 195.08372 196.43086"
         y="185.7043"
         sodipodi:role="line"
         id="tspan31">inspiredbybythehsrmthemebyBenjaminWeiss.</tspan><tspan
         style="font-variant:normal;font-weight:normal;font-size:3.51459px;font-family:'Latin Modern Sans';writing-mode:lr-tb;fill:#23373b;fill-opacity:1;fill-rule:nonzero;stroke:none;stroke-width:0.352777"
         x="122.88712 124.98605 126.80204 128.49113 130.30711 131.14676 133.87933 135.14847 136.96445 139.69704 140.96616 142.78214 144.34438 147.1367 149.87282 151.59038 154.3813 155.94356 157.63266 158.47229 159.31192 160.15157 161.96754"
         y="192.03065"
         sodipodi:role="line"
         id="tspan32">Enablethethemebycalling</tspan></text>
    <text
       id="text32"
       xml:space="preserve"
       x="122.88712"
       y="199.05975"
       style="font-size:4.23333px;stroke-width:0.352777"><tspan
         style="font-variant:normal;font-weight:normal;font-size:3.51459px;font-family:'Latin Modern Mono';writing-mode:lr-tb;fill:#23373b;fill-opacity:1;fill-rule:nonzero;stroke:none;stroke-width:0.352777"
         x="122.88712 124.73229 126.57746 128.42261 130.26776 132.11292 133.95807 135.80324 137.64838 139.49355 141.33868 143.18385 145.02901 146.87416 148.71931 150.56447 152.40962 154.25479 156.09996 157.94511 159.79027 161.63542"
         y="199.05975"
         sodipodi:role="line"
         id="tspan33">\documentclass{beamer}</tspan><tspan
         style="font-variant:normal;font-weight:normal;font-size:3.51459px;font-family:'Latin Modern Mono';writing-mode:lr-tb;fill:#23373b;fill-opacity:1;fill-rule:nonzero;stroke:none;stroke-width:0.352777"
         x="122.88712 124.73229 126.57746 128.42261 130.26776 132.11292 133.95807 135.80324 137.64838 139.49355 141.33868 143.18385 145.02901 146.87416 148.71931 150.56447 152.40962"
         y="203.27721"
         sodipodi:role="line"
         id="tspan34">\usetheme{moloch}</tspan></text>
    <text
       id="text34"
       xml:space="preserve"
       x="234.77307"
       y="232.77896"
       style="font-size:4.23333px;stroke-width:0.352777"><tspan
         style="font-variant:normal;font-weight:normal;font-size:1.75729px;font-family:'Latin Modern Sans';writing-mode:lr-tb;fill:#23373b;fill-opacity:1;fill-rule:nonzero;stroke:none;stroke-width:0.352777"
         x="234.77307 236.01776 237.26245 238.19611"
         y="232.77896"
         sodipodi:role="line"
         id="tspan35">2/15</tspan></text>
    <path
       id="path17-0"
       d="M 112.88728,138.62399 H 240.8874 V 42.623987 H 112.88728 Z"
       style="fill:none;fill-opacity:1;fill-rule:nonzero;stroke:#000000;stroke-width:0.132292;stroke-dasharray:none;stroke-opacity:1" />
    <path
       id="path17-0-0"
       d="M -15.11285,138.62399 H 112.88727 V 42.623988 H -15.11285 Z"
       style="fill:none;fill-opacity:1;fill-rule:nonzero;stroke:#000000;stroke-width:0.132292;stroke-dasharray:none;stroke-opacity:1" />
    <path
       id="path17-0-06"
       d="M -15.112849,234.62399 H 112.88727 v -96 H -15.112849 Z"
       style="fill:none;fill-opacity:1;fill-rule:nonzero;stroke:#000000;stroke-width:0.132292;stroke-dasharray:none;stroke-opacity:1" />
    <path
       id="path17-0-4"
       d="M 112.88728,234.62399 H 240.8874 v -96 H 112.88728 Z"
       style="fill:none;fill-opacity:1;fill-rule:nonzero;stroke:#000000;stroke-width:0.132292;stroke-dasharray:none;stroke-opacity:1" />
  </g>
</svg>
